<svg xmlns="http://www.w3.org/2000/svg" id="mainsvg" width="438.140625" height="1857" viewBox="-10 -10 438.140625 1857"><defs><marker id="arrow" viewBox="0 0 10 10" refX="10" refY="5" markerWidth="6" markerHeight="6" orient="auto-start-reverse"><path d="M 0 0 L 10 5 L 0 10 z"/></marker><style>@import url("https://fonts.googleapis.com/css?family=Roboto:400,400i,700,700i");</style><filter id="shadowfilter" x="-20%" y="-20%" width="150%" height="150%" filterUnits="objectBoundingBox" primitiveUnits="userSpaceOnUse" color-interpolation-filters="linearRGB"><feDropShadow stdDeviation="4 4" in="SourceGraphic" dx="1" dy="1" flood-color="#BABABA" flood-opacity="0.9" x="0%" y="0%" width="100%" height="100%" result="dropShadow"/></filter><filter id="shadowfilter2" x="0" y="0" width="200%" height="200%" filterUnits="userSpaceOnUse" color-interpolation-filters="sRGB"><feFlood flood-opacity="0" result="BackgroundImageFix"/><feColorMatrix in="SourceAlpha" type="matrix" values="0 0 0 0 0 0 0 0 0 0 0 0 0 0 0 0 0 0 127 0"/><feOffset dy="4" dx="2"/><feGaussianBlur stdDeviation="2"/><feColorMatrix type="matrix" values="0 0 0 0 0 0 0 0 0 0 0 0 0 0 0 0 0 0 0.25 0"/><feBlend mode="normal" in2="BackgroundImageFix" result="effect1_dropShadow"/><feBlend mode="normal" in="SourceGraphic" in2="effect1_dropShadow" result="shape"/></filter></defs><g transform="translate(135.5751953125, 212)"><rect width="24.861328125" height="35" stroke="#555656" fill="white" stroke-width="1.3" transform="translate(0, 0)" rx="2" filter="url(#shadowfilter)"/><text fill="black" font-size="14" font-weight="normal" transform="translate(8, 17.5)" alignment-baseline="middle" font-family="Roboto, Palatino, Helvetica"> 5 </text></g><g transform="translate(211.189453125, 106)"><rect width="24.861328125" height="35" stroke="#555656" fill="white" stroke-width="1.3" transform="translate(0, 0)" rx="2" filter="url(#shadowfilter)"/><text fill="black" font-size="14" font-weight="normal" transform="translate(8, 17.5)" alignment-baseline="middle" font-family="Roboto, Palatino, Helvetica"> 1 </text></g><g transform="translate(297.4482421875, 212)"><rect width="24.861328125" height="35" stroke="#555656" fill="white" stroke-width="1.3" transform="translate(0, 0)" rx="2" filter="url(#shadowfilter)"/><text fill="black" font-size="14" font-weight="normal" transform="translate(8, 17.5)" alignment-baseline="middle" font-family="Roboto, Palatino, Helvetica"> 8 </text></g><g transform="translate(211.189453125, 0)"><rect width="24.861328125" height="35" stroke="#555656" fill="white" stroke-width="1.3" transform="translate(0, 0)" rx="2" filter="url(#shadowfilter)"/><text fill="black" font-size="14" font-weight="normal" transform="translate(8, 17.5)" alignment-baseline="middle" font-family="Roboto, Palatino, Helvetica"> 2 </text></g><g transform="translate(159.29052734375, 530)"><rect width="24.861328125" height="35" stroke="#555656" fill="white" stroke-width="1.3" transform="translate(0, 0)" rx="2" filter="url(#shadowfilter)"/><text fill="black" font-size="14" font-weight="normal" transform="translate(8, 17.5)" alignment-baseline="middle" font-family="Roboto, Palatino, Helvetica"> 9 </text></g><g transform="translate(135.5751953125, 424)"><rect width="24.861328125" height="35" stroke="#555656" fill="white" stroke-width="1.3" transform="translate(0, 0)" rx="2" filter="url(#shadowfilter)"/><text fill="black" font-size="14" font-weight="normal" transform="translate(8, 17.5)" alignment-baseline="middle" font-family="Roboto, Palatino, Helvetica"> 3 </text></g><g transform="translate(102.89306640625, 318)"><rect width="24.861328125" height="35" stroke="#555656" fill="white" stroke-width="1.3" transform="translate(0, 0)" rx="2" filter="url(#shadowfilter)"/><text fill="black" font-size="14" font-weight="normal" transform="translate(8, 17.5)" alignment-baseline="middle" font-family="Roboto, Palatino, Helvetica"> 4 </text></g><g transform="translate(293.517578125, 318)"><rect width="32.72265625" height="35" stroke="#555656" fill="white" stroke-width="1.3" transform="translate(0, 0)" rx="2" filter="url(#shadowfilter)"/><text fill="black" font-size="14" font-weight="normal" transform="translate(8, 17.5)" alignment-baseline="middle" font-family="Roboto, Palatino, Helvetica"> 11 </text></g><g transform="translate(293.517578125, 530)"><rect width="32.72265625" height="35" stroke="#555656" fill="white" stroke-width="1.3" transform="translate(0, 0)" rx="2" filter="url(#shadowfilter)"/><text fill="black" font-size="14" font-weight="normal" transform="translate(8, 17.5)" alignment-baseline="middle" font-family="Roboto, Palatino, Helvetica"> 20 </text></g><g transform="translate(258.8701171875, 424)"><rect width="32.72265625" height="35" stroke="#555656" fill="white" stroke-width="1.3" transform="translate(0, 0)" rx="2" filter="url(#shadowfilter)"/><text fill="black" font-size="14" font-weight="normal" transform="translate(8, 17.5)" alignment-baseline="middle" font-family="Roboto, Palatino, Helvetica"> 10 </text></g><g transform="translate(252.04443359375, 848)"><rect width="32.72265625" height="35" stroke="#555656" fill="white" stroke-width="1.3" transform="translate(0, 0)" rx="2" filter="url(#shadowfilter)"/><text fill="black" font-size="14" font-weight="normal" transform="translate(8, 17.5)" alignment-baseline="middle" font-family="Roboto, Palatino, Helvetica"> 27 </text></g><g transform="translate(200.794921875, 742)"><rect width="32.72265625" height="35" stroke="#555656" fill="white" stroke-width="1.3" transform="translate(0, 0)" rx="2" filter="url(#shadowfilter)"/><text fill="black" font-size="14" font-weight="normal" transform="translate(8, 17.5)" alignment-baseline="middle" font-family="Roboto, Palatino, Helvetica"> 15 </text></g><g transform="translate(169.32177734375, 848)"><rect width="32.72265625" height="35" stroke="#555656" fill="white" stroke-width="1.3" transform="translate(0, 0)" rx="2" filter="url(#shadowfilter)"/><text fill="black" font-size="14" font-weight="normal" transform="translate(8, 17.5)" alignment-baseline="middle" font-family="Roboto, Palatino, Helvetica"> 25 </text></g><g transform="translate(334.87890625, 742)"><rect width="32.72265625" height="35" stroke="#555656" fill="white" stroke-width="1.3" transform="translate(0, 0)" rx="2" filter="url(#shadowfilter)"/><text fill="black" font-size="14" font-weight="normal" transform="translate(8, 17.5)" alignment-baseline="middle" font-family="Roboto, Palatino, Helvetica"> 17 </text></g><g transform="translate(293.517578125, 636)"><rect width="32.72265625" height="35" stroke="#555656" fill="white" stroke-width="1.3" transform="translate(0, 0)" rx="2" filter="url(#shadowfilter)"/><text fill="black" font-size="14" font-weight="normal" transform="translate(8, 17.5)" alignment-baseline="middle" font-family="Roboto, Palatino, Helvetica"> 18 </text></g><g transform="translate(130.9794921875, 1272)"><rect width="32.72265625" height="35" stroke="#555656" fill="white" stroke-width="1.3" transform="translate(0, 0)" rx="2" filter="url(#shadowfilter)"/><text fill="black" font-size="14" font-weight="normal" transform="translate(8, 17.5)" alignment-baseline="middle" font-family="Roboto, Palatino, Helvetica"> 35 </text></g><g transform="translate(169.18017578125, 1166)"><rect width="32.72265625" height="35" stroke="#555656" fill="white" stroke-width="1.3" transform="translate(0, 0)" rx="2" filter="url(#shadowfilter)"/><text fill="black" font-size="14" font-weight="normal" transform="translate(8, 17.5)" alignment-baseline="middle" font-family="Roboto, Palatino, Helvetica"> 21 </text></g><g transform="translate(238.728515625, 1272)"><rect width="32.72265625" height="35" stroke="#555656" fill="white" stroke-width="1.3" transform="translate(0, 0)" rx="2" filter="url(#shadowfilter)"/><text fill="black" font-size="14" font-weight="normal" transform="translate(8, 17.5)" alignment-baseline="middle" font-family="Roboto, Palatino, Helvetica"> 32 </text></g><g transform="translate(169.18017578125, 1060)"><rect width="32.72265625" height="35" stroke="#555656" fill="white" stroke-width="1.3" transform="translate(0, 0)" rx="2" filter="url(#shadowfilter)"/><text fill="black" font-size="14" font-weight="normal" transform="translate(8, 17.5)" alignment-baseline="middle" font-family="Roboto, Palatino, Helvetica"> 22 </text></g><g transform="translate(169.32177734375, 954)"><rect width="32.72265625" height="35" stroke="#555656" fill="white" stroke-width="1.3" transform="translate(0, 0)" rx="2" filter="url(#shadowfilter)"/><text fill="black" font-size="14" font-weight="normal" transform="translate(8, 17.5)" alignment-baseline="middle" font-family="Roboto, Palatino, Helvetica"> 23 </text></g><g transform="translate(252.04443359375, 954)"><rect width="32.72265625" height="35" stroke="#555656" fill="white" stroke-width="1.3" transform="translate(0, 0)" rx="2" filter="url(#shadowfilter)"/><text fill="black" font-size="14" font-weight="normal" transform="translate(8, 17.5)" alignment-baseline="middle" font-family="Roboto, Palatino, Helvetica"> 26 </text></g><g transform="translate(154.02001953125, 1802)"><rect width="32.72265625" height="35" stroke="#555656" fill="white" stroke-width="1.3" transform="translate(0, 0)" rx="2" filter="url(#shadowfilter)"/><text fill="black" font-size="14" font-weight="normal" transform="translate(8, 17.5)" alignment-baseline="middle" font-family="Roboto, Palatino, Helvetica"> 44 </text></g><g transform="translate(24.30859375, 1696)"><rect width="32.72265625" height="35" stroke="#555656" fill="white" stroke-width="1.3" transform="translate(0, 0)" rx="2" filter="url(#shadowfilter)"/><text fill="black" font-size="14" font-weight="normal" transform="translate(8, 17.5)" alignment-baseline="middle" font-family="Roboto, Palatino, Helvetica"> 28 </text></g><g transform="translate(24.30859375, 1590)"><rect width="32.72265625" height="35" stroke="#555656" fill="white" stroke-width="1.3" transform="translate(0, 0)" rx="2" filter="url(#shadowfilter)"/><text fill="black" font-size="14" font-weight="normal" transform="translate(8, 17.5)" alignment-baseline="middle" font-family="Roboto, Palatino, Helvetica"> 29 </text></g><g transform="translate(91.87109375, 1484)"><rect width="32.72265625" height="35" stroke="#555656" fill="white" stroke-width="1.3" transform="translate(0, 0)" rx="2" filter="url(#shadowfilter)"/><text fill="black" font-size="14" font-weight="normal" transform="translate(8, 17.5)" alignment-baseline="middle" font-family="Roboto, Palatino, Helvetica"> 30 </text></g><g transform="translate(200.6533203125, 1590)"><rect width="32.72265625" height="35" stroke="#555656" fill="white" stroke-width="1.3" transform="translate(0, 0)" rx="2" filter="url(#shadowfilter)"/><text fill="black" font-size="14" font-weight="normal" transform="translate(8, 17.5)" alignment-baseline="middle" font-family="Roboto, Palatino, Helvetica"> 43 </text></g><g transform="translate(91.87109375, 1378)"><rect width="32.72265625" height="35" stroke="#555656" fill="white" stroke-width="1.3" transform="translate(0, 0)" rx="2" filter="url(#shadowfilter)"/><text fill="black" font-size="14" font-weight="normal" transform="translate(8, 17.5)" alignment-baseline="middle" font-family="Roboto, Palatino, Helvetica"> 31 </text></g><g transform="translate(360.41796875, 1378)"><rect width="32.72265625" height="35" stroke="#555656" fill="white" stroke-width="1.3" transform="translate(0, 0)" rx="2" filter="url(#shadowfilter)"/><text fill="black" font-size="14" font-weight="normal" transform="translate(8, 17.5)" alignment-baseline="middle" font-family="Roboto, Palatino, Helvetica"> 42 </text></g><g transform="translate(277.6953125, 1484)"><rect width="32.72265625" height="35" stroke="#555656" fill="white" stroke-width="1.3" transform="translate(0, 0)" rx="2" filter="url(#shadowfilter)"/><text fill="black" font-size="14" font-weight="normal" transform="translate(8, 17.5)" alignment-baseline="middle" font-family="Roboto, Palatino, Helvetica"> 33 </text></g><g transform="translate(174.59375, 1378)"><rect width="32.72265625" height="35" stroke="#555656" fill="white" stroke-width="1.3" transform="translate(0, 0)" rx="2" filter="url(#shadowfilter)"/><text fill="black" font-size="14" font-weight="normal" transform="translate(8, 17.5)" alignment-baseline="middle" font-family="Roboto, Palatino, Helvetica"> 34 </text></g><g transform="translate(350.41796875, 1590)"><rect width="32.72265625" height="35" stroke="#555656" fill="white" stroke-width="1.3" transform="translate(0, 0)" rx="2" filter="url(#shadowfilter)"/><text fill="black" font-size="14" font-weight="normal" transform="translate(8, 17.5)" alignment-baseline="middle" font-family="Roboto, Palatino, Helvetica"> 54 </text></g><g transform="translate(360.41796875, 1484)"><rect width="32.72265625" height="35" stroke="#555656" fill="white" stroke-width="1.3" transform="translate(0, 0)" rx="2" filter="url(#shadowfilter)"/><text fill="black" font-size="14" font-weight="normal" transform="translate(8, 17.5)" alignment-baseline="middle" font-family="Roboto, Palatino, Helvetica"> 39 </text></g><path transform="rotate(0,undefined, undefined)" d="M211.189453125,132.21297575843676L200.65885416666666,139.59414646536396C190.12825520833334,146.97531717229117,169.06705729166666,161.73765858614559,158.53645833333334,175.03549595973945C148.005859375,188.33333333333334,148.005859375,200.16666666666666,148.005859375,206.08333333333334L148.005859375,212" stroke="black" stroke-dasharray="none" stroke-width="1" fill="none" marker-end="url(#arrow)"/><g transform="translate(133.537109375, 176.5)"><rect width="27.4453125" height="21" stroke="none" fill="white" stroke-width="1" transform="translate(0, 0)" rx="5"/><text fill="black" font-size="14" font-weight="normal" transform="translate(1, 10.5)" alignment-baseline="middle">true</text></g><path transform="rotate(0,undefined, undefined)" d="M236.05078125,131.13777468328635L248.35546875,138.69814556940528C260.66015625,146.25851645552424,285.26953125,161.3792582277621,297.57421875,174.85629578054773C309.87890625,188.33333333333334,309.87890625,200.16666666666666,309.87890625,206.08333333333334L309.87890625,212" stroke="black" stroke-dasharray="none" stroke-width="1" fill="none" marker-end="url(#arrow)"/><g transform="translate(291.9453125, 176.5)"><rect width="33.5087890625" height="21" stroke="none" fill="white" stroke-width="1" transform="translate(0, 0)" rx="5"/><text fill="black" font-size="14" font-weight="normal" transform="translate(1, 10.5)" alignment-baseline="middle">false</text></g><path transform="rotate(0,undefined, undefined)" d="M223.6201171875,35L223.6201171875,40.916666666666664C223.6201171875,46.833333333333336,223.6201171875,58.666666666666664,223.6201171875,70.5C223.6201171875,82.33333333333333,223.6201171875,94.16666666666667,223.6201171875,100.08333333333333L223.6201171875,106" stroke="black" stroke-dasharray="none" stroke-width="1" fill="none" marker-end="url(#arrow)"/><path transform="rotate(0,undefined, undefined)" d="M148.005859375,459L148.005859375,464.9166666666667C148.005859375,470.8333333333333,148.005859375,482.6666666666667,150.65332568666472,494.5C153.3007919983294,506.3333333333333,158.5957246216588,518.1666666666666,161.24319093332352,524.0833333333334L163.8906572449882,530" stroke="black" stroke-dasharray="none" stroke-width="1" fill="none" marker-end="url(#arrow)"/><path transform="rotate(0,undefined, undefined)" d="M115.32373046875,353L115.32373046875,358.9166666666667C115.32373046875,364.8333333333333,115.32373046875,376.6666666666667,118.97220712337854,388.5C122.62068377800706,400.3333333333333,129.91763708726415,412.1666666666667,133.56611374189268,418.0833333333333L137.21459039652123,424" stroke="black" stroke-dasharray="none" stroke-width="1" fill="none" marker-end="url(#arrow)"/><path transform="rotate(0,undefined, undefined)" d="M137.21459039652123,247L133.56611374189268,252.91666666666666C129.91763708726415,258.8333333333333,122.62068377800706,270.6666666666667,118.97220712337854,282.5C115.32373046875,294.3333333333333,115.32373046875,306.1666666666667,115.32373046875,312.0833333333333L115.32373046875,318" stroke="black" stroke-dasharray="none" stroke-width="1" fill="none" marker-end="url(#arrow)"/><g transform="translate(100.85498046875, 282.5)"><rect width="27.4453125" height="21" stroke="none" fill="white" stroke-width="1" transform="translate(0, 0)" rx="5"/><text fill="black" font-size="14" font-weight="normal" transform="translate(1, 10.5)" alignment-baseline="middle">true</text></g><path transform="rotate(0,undefined, undefined)" d="M158.79712835347877,247L162.44560500810732,252.91666666666666C166.09408166273585,258.8333333333333,173.39103497199292,270.6666666666667,177.03951162662148,285.4166666666667C180.68798828125,300.1666666666667,180.68798828125,317.8333333333333,180.68798828125,335.5C180.68798828125,353.1666666666667,180.68798828125,370.8333333333333,177.03951162662145,385.5833333333333C173.39103497199292,400.3333333333333,166.09408166273585,412.1666666666667,162.44560500810732,418.0833333333333L158.79712835347877,424" stroke="black" stroke-dasharray="none" stroke-width="1" fill="none" marker-end="url(#arrow)"/><g transform="translate(162.75439453125, 335.5)"><rect width="33.5087890625" height="21" stroke="none" fill="white" stroke-width="1" transform="translate(0, 0)" rx="5"/><text fill="black" font-size="14" font-weight="normal" transform="translate(1, 10.5)" alignment-baseline="middle">false</text></g><path transform="rotate(0,undefined, undefined)" d="M309.87890625,247L309.87890625,252.91666666666666C309.87890625,258.8333333333333,309.87890625,270.6666666666667,309.87890625,282.5C309.87890625,294.3333333333333,309.87890625,306.1666666666667,309.87890625,312.0833333333333L309.87890625,318" stroke="black" stroke-dasharray="none" stroke-width="1" fill="none" marker-end="url(#arrow)"/><path transform="rotate(0,undefined, undefined)" d="M184.15185546875,534.8056101760295L190.72989908854166,528.0880084800245C197.30794270833334,521.3704067840197,210.46402994791666,507.9352033920098,217.04207356770834,492.38426836267155C223.6201171875,476.8333333333333,223.6201171875,459.1666666666667,223.6201171875,441.5C223.6201171875,423.8333333333333,223.6201171875,406.1666666666667,223.6201171875,388.5C223.6201171875,370.8333333333333,223.6201171875,353.1666666666667,223.6201171875,335.5C223.6201171875,317.8333333333333,223.6201171875,300.1666666666667,223.6201171875,282.5C223.6201171875,264.8333333333333,223.6201171875,247.16666666666666,223.6201171875,229.5C223.6201171875,211.83333333333334,223.6201171875,194.16666666666666,223.6201171875,179.41666666666666C223.6201171875,164.66666666666666,223.6201171875,152.83333333333334,223.6201171875,146.91666666666666L223.6201171875,141" stroke="black" stroke-dasharray="none" stroke-width="1" fill="none" marker-end="url(#arrow)"/><path transform="rotate(0,undefined, undefined)" d="M275.2314453125,459L275.2314453125,464.9166666666667C275.2314453125,470.8333333333333,275.2314453125,482.6666666666667,279.0993222410574,494.5C282.9671991696148,506.3333333333333,290.7029530267296,518.1666666666666,294.57082995528697,524.0833333333334L298.43870688384436,530" stroke="black" stroke-dasharray="none" stroke-width="1" fill="none" marker-end="url(#arrow)"/><path transform="rotate(0,undefined, undefined)" d="M298.43870688384436,353L294.57082995528697,358.9166666666667C290.7029530267296,364.8333333333333,282.9671991696148,376.6666666666667,279.0993222410574,388.5C275.2314453125,400.3333333333333,275.2314453125,412.1666666666667,275.2314453125,418.0833333333333L275.2314453125,424" stroke="black" stroke-dasharray="none" stroke-width="1" fill="none" marker-end="url(#arrow)"/><g transform="translate(260.7626953125, 388.5)"><rect width="27.4453125" height="21" stroke="none" fill="white" stroke-width="1" transform="translate(0, 0)" rx="5"/><text fill="black" font-size="14" font-weight="normal" transform="translate(1, 10.5)" alignment-baseline="middle">true</text></g><path transform="rotate(0,undefined, undefined)" d="M321.31910561615564,353L325.18698254471303,358.9166666666667C329.0548594732704,364.8333333333333,336.7906133303852,376.6666666666667,340.6584902589426,391.4166666666667C344.5263671875,406.1666666666667,344.5263671875,423.8333333333333,344.5263671875,441.5C344.5263671875,459.1666666666667,344.5263671875,476.8333333333333,340.6584902589426,491.5833333333333C336.7906133303852,506.3333333333333,329.0548594732704,518.1666666666666,325.18698254471303,524.0833333333334L321.31910561615564,530" stroke="black" stroke-dasharray="none" stroke-width="1" fill="none" marker-end="url(#arrow)"/><g transform="translate(326.5927734375, 441.5)"><rect width="33.5087890625" height="21" stroke="none" fill="white" stroke-width="1" transform="translate(0, 0)" rx="5"/><text fill="black" font-size="14" font-weight="normal" transform="translate(1, 10.5)" alignment-baseline="middle">false</text></g><path transform="rotate(0,undefined, undefined)" d="M233.517578125,776.420168827828L239.332275390625,782.4334740231901C245.14697265625,788.446779218552,256.7763671875,800.4733896092761,262.591064453125,812.4033614713047C268.40576171875,824.3333333333334,268.40576171875,836.1666666666666,268.40576171875,842.0833333333334L268.40576171875,848" stroke="black" stroke-dasharray="none" stroke-width="1" fill="none" marker-end="url(#arrow)"/><g transform="translate(253.93701171875, 812.5)"><rect width="27.4453125" height="21" stroke="none" fill="white" stroke-width="1" transform="translate(0, 0)" rx="5"/><text fill="black" font-size="14" font-weight="normal" transform="translate(1, 10.5)" alignment-baseline="middle">true</text></g><path transform="rotate(0,undefined, undefined)" d="M206.76417397553067,777L203.2506625577339,782.9166666666666C199.73715113993708,788.8333333333334,192.71012830434356,800.6666666666666,189.19661688654676,812.5C185.68310546875,824.3333333333334,185.68310546875,836.1666666666666,185.68310546875,842.0833333333334L185.68310546875,848" stroke="black" stroke-dasharray="none" stroke-width="1" fill="none" marker-end="url(#arrow)"/><g transform="translate(167.74951171875, 812.5)"><rect width="33.5087890625" height="21" stroke="none" fill="white" stroke-width="1" transform="translate(0, 0)" rx="5"/><text fill="black" font-size="14" font-weight="normal" transform="translate(1, 10.5)" alignment-baseline="middle">false</text></g><path transform="rotate(0,undefined, undefined)" d="M323.5359485554245,671L328.15332952535374,676.9166666666666C332.770710495283,682.8333333333334,342.0054724351415,694.6666666666666,346.62285340507077,706.5C351.240234375,718.3333333333334,351.240234375,730.1666666666666,351.240234375,736.0833333333334L351.240234375,742" stroke="black" stroke-dasharray="none" stroke-width="1" fill="none" marker-end="url(#arrow)"/><g transform="translate(336.771484375, 706.5)"><rect width="27.4453125" height="21" stroke="none" fill="white" stroke-width="1" transform="translate(0, 0)" rx="5"/><text fill="black" font-size="14" font-weight="normal" transform="translate(1, 10.5)" alignment-baseline="middle">true</text></g><path transform="rotate(0,undefined, undefined)" d="M293.517578125,662.8520874583983L280.7906901041667,670.1267395486652C268.0638020833333,677.4013916389322,242.61002604166666,691.9506958194661,229.88313802083334,705.1420145763997C217.15625,718.3333333333334,217.15625,730.1666666666666,217.15625,736.0833333333334L217.15625,742" stroke="black" stroke-dasharray="none" stroke-width="1" fill="none" marker-end="url(#arrow)"/><g transform="translate(199.22265625, 706.5)"><rect width="33.5087890625" height="21" stroke="none" fill="white" stroke-width="1" transform="translate(0, 0)" rx="5"/><text fill="black" font-size="14" font-weight="normal" transform="translate(1, 10.5)" alignment-baseline="middle">false</text></g><path transform="rotate(0,undefined, undefined)" d="M309.87890625,565L309.87890625,570.9166666666666C309.87890625,576.8333333333334,309.87890625,588.6666666666666,309.87890625,600.5C309.87890625,612.3333333333334,309.87890625,624.1666666666666,309.87890625,630.0833333333334L309.87890625,636" stroke="black" stroke-dasharray="none" stroke-width="1" fill="none" marker-end="url(#arrow)"/><path transform="rotate(0,undefined, undefined)" d="M169.18017578125,1196.9646802380682L161.17342122395834,1203.5539001983902C153.16666666666666,1210.1431201587122,137.15315755208334,1223.3215600793562,132.07137658461085,1235.8274467063447C126.98959561713836,1248.3333333333333,132.83954279677673,1260.1666666666667,135.76451638659591,1266.0833333333333L138.6894899764151,1272" stroke="black" stroke-dasharray="none" stroke-width="1" fill="none" marker-end="url(#arrow)"/><g transform="translate(106.6708984375, 1236.5)"><rect width="27.4453125" height="21" stroke="none" fill="white" stroke-width="1" transform="translate(0, 0)" rx="5"/><text fill="black" font-size="14" font-weight="normal" transform="translate(1, 10.5)" alignment-baseline="middle">true</text></g><path transform="rotate(0,undefined, undefined)" d="M200.02611383402123,1201L204.92329147626768,1206.9166666666667C209.82046911851413,1212.8333333333333,219.61482440300708,1224.6666666666667,227.3788686308471,1236.5C235.14291285868708,1248.3333333333333,240.87664602987422,1260.1666666666667,243.74351261546778,1266.0833333333333L246.61037920106133,1272" stroke="black" stroke-dasharray="none" stroke-width="1" fill="none" marker-end="url(#arrow)"/><g transform="translate(211.4755859375, 1236.5)"><rect width="33.5087890625" height="21" stroke="none" fill="white" stroke-width="1" transform="translate(0, 0)" rx="5"/><text fill="black" font-size="14" font-weight="normal" transform="translate(1, 10.5)" alignment-baseline="middle">false</text></g><path transform="rotate(0,undefined, undefined)" d="M185.54150390625,1095L185.54150390625,1100.9166666666667C185.54150390625,1106.8333333333333,185.54150390625,1118.6666666666667,185.54150390625,1130.5C185.54150390625,1142.3333333333333,185.54150390625,1154.1666666666667,185.54150390625,1160.0833333333333L185.54150390625,1166" stroke="black" stroke-dasharray="none" stroke-width="1" fill="none" marker-end="url(#arrow)"/><path transform="rotate(0,undefined, undefined)" d="M185.63635023584905,989L185.6205425142492,994.9166666666666C185.60473479264934,1000.8333333333334,185.57311934944968,1012.6666666666666,185.55731162784983,1024.5C185.54150390625,1036.3333333333333,185.54150390625,1048.1666666666667,185.54150390625,1054.0833333333333L185.54150390625,1060" stroke="black" stroke-dasharray="none" stroke-width="1" fill="none" marker-end="url(#arrow)"/><g transform="translate(171.07275390625, 1024.5)"><rect width="27.4453125" height="21" stroke="none" fill="white" stroke-width="1" transform="translate(0, 0)" rx="5"/><text fill="black" font-size="14" font-weight="normal" transform="translate(1, 10.5)" alignment-baseline="middle">true</text></g><path transform="rotate(0,undefined, undefined)" d="M202.04443359375,981.3123311361464L214.04646809895834,988.5102759467887C226.04850260416666,995.7082207574309,250.05257161458334,1010.1041103787155,262.0546061197917,1026.135388522691C274.056640625,1042.1666666666667,274.056640625,1059.8333333333333,274.056640625,1077.5C274.056640625,1095.1666666666667,274.056640625,1112.8333333333333,274.056640625,1130.5C274.056640625,1148.1666666666667,274.056640625,1165.8333333333333,274.056640625,1183.5C274.056640625,1201.1666666666667,274.056640625,1218.8333333333333,271.9392780807783,1233.5833333333333C269.8219155365566,1248.3333333333333,265.5871904481132,1260.1666666666667,263.4698279038915,1266.0833333333333L261.3524653596698,1272" stroke="black" stroke-dasharray="none" stroke-width="1" fill="none" marker-end="url(#arrow)"/><g transform="translate(256.123046875, 1130.5)"><rect width="33.5087890625" height="21" stroke="none" fill="white" stroke-width="1" transform="translate(0, 0)" rx="5"/><text fill="black" font-size="14" font-weight="normal" transform="translate(1, 10.5)" alignment-baseline="middle">false</text></g><path transform="rotate(0,undefined, undefined)" d="M185.68310546875,883L185.68310546875,888.9166666666666C185.68310546875,894.8333333333334,185.68310546875,906.6666666666666,185.68310546875,918.5C185.68310546875,930.3333333333334,185.68310546875,942.1666666666666,185.68310546875,948.0833333333334L185.68310546875,954" stroke="black" stroke-dasharray="none" stroke-width="1" fill="none" marker-end="url(#arrow)"/><path transform="rotate(0,undefined, undefined)" d="M268.40576171875,883L268.40576171875,888.9166666666666C268.40576171875,894.8333333333334,268.40576171875,906.6666666666666,268.40576171875,918.5C268.40576171875,930.3333333333334,268.40576171875,942.1666666666666,268.40576171875,948.0833333333334L268.40576171875,954" stroke="black" stroke-dasharray="none" stroke-width="1" fill="none" marker-end="url(#arrow)"/><path transform="rotate(0,undefined, undefined)" d="M40.669921875,1731L40.669921875,1736.9166666666667C40.669921875,1742.8333333333333,40.669921875,1754.6666666666667,59.561604817708336,1768.3024620834258C78.45328776041667,1781.9382575001848,116.23665364583333,1797.37651500037,135.12833658854166,1805.0956437504626L154.02001953125,1812.8147725005551" stroke="black" stroke-dasharray="none" stroke-width="1" fill="none" marker-end="url(#arrow)"/><path transform="rotate(0,undefined, undefined)" d="M40.669921875,1625L40.669921875,1630.9166666666667C40.669921875,1636.8333333333333,40.669921875,1648.6666666666667,40.669921875,1660.5C40.669921875,1672.3333333333333,40.669921875,1684.1666666666667,40.669921875,1690.0833333333333L40.669921875,1696" stroke="black" stroke-dasharray="none" stroke-width="1" fill="none" marker-end="url(#arrow)"/><g transform="translate(26.201171875, 1660.5)"><rect width="27.4453125" height="21" stroke="none" fill="white" stroke-width="1" transform="translate(0, 0)" rx="5"/><text fill="black" font-size="14" font-weight="normal" transform="translate(1, 10.5)" alignment-baseline="middle">true</text></g><path transform="rotate(0,undefined, undefined)" d="M49.321252211084904,1590L52.246225800904085,1584.0833333333333C55.17119939072327,1578.1666666666667,61.02114657036163,1566.3333333333333,68.56350113011007,1554.5C76.1058556898585,1542.6666666666667,85.34061762971699,1530.8333333333333,89.95799859964622,1524.9166666666667L94.57537956957547,1519" stroke="black" stroke-dasharray="none" stroke-width="1" fill="none" marker-end="url(#arrow)"/><g transform="translate(48.9375, 1554.5)"><rect width="33.5087890625" height="21" stroke="none" fill="white" stroke-width="1" transform="translate(0, 0)" rx="5"/><text fill="black" font-size="14" font-weight="normal" transform="translate(1, 10.5)" alignment-baseline="middle">false</text></g><path transform="rotate(0,undefined, undefined)" d="M91.87109375,1510.748255462745L78.970703125,1518.040212885621C66.0703125,1525.3321703084966,40.26953125,1539.9160851542483,30.294114214819185,1553.124709243791C20.318697179638367,1566.3333333333333,26.16864435927673,1578.1666666666667,29.093617949095915,1584.0833333333333L32.018591538915096,1590" stroke="black" stroke-dasharray="none" stroke-width="1" fill="none" marker-end="url(#arrow)"/><g transform="translate(0, 1554.5)"><rect width="27.4453125" height="21" stroke="none" fill="white" stroke-width="1" transform="translate(0, 0)" rx="5"/><text fill="black" font-size="14" font-weight="normal" transform="translate(1, 10.5)" alignment-baseline="middle">true</text></g><path transform="rotate(0,undefined, undefined)" d="M124.59375,1509.4714344707477L139.99723307291666,1516.9761953922898C155.40071614583334,1524.4809563138317,186.20768229166666,1539.490478156916,201.61116536458334,1552.9119057451246C217.0146484375,1566.3333333333333,217.0146484375,1578.1666666666667,217.0146484375,1584.0833333333333L217.0146484375,1590" stroke="black" stroke-dasharray="none" stroke-width="1" fill="none" marker-end="url(#arrow)"/><g transform="translate(199.0810546875, 1554.5)"><rect width="33.5087890625" height="21" stroke="none" fill="white" stroke-width="1" transform="translate(0, 0)" rx="5"/><text fill="black" font-size="14" font-weight="normal" transform="translate(1, 10.5)" alignment-baseline="middle">false</text></g><path transform="rotate(0,undefined, undefined)" d="M108.232421875,1413L108.232421875,1418.9166666666667C108.232421875,1424.8333333333333,108.232421875,1436.6666666666667,108.232421875,1448.5C108.232421875,1460.3333333333333,108.232421875,1472.1666666666667,108.232421875,1478.0833333333333L108.232421875,1484" stroke="black" stroke-dasharray="none" stroke-width="1" fill="none" marker-end="url(#arrow)"/><path transform="rotate(0,undefined, undefined)" d="M238.728515625,1295.4047093402137L216.97916666666666,1303.253924450178C195.22981770833334,1311.1031395601424,151.73111979166666,1326.8015697800713,129.98177083333334,1340.5674515567023C108.232421875,1354.3333333333333,108.232421875,1366.1666666666667,108.232421875,1372.0833333333333L108.232421875,1378" stroke="black" stroke-dasharray="none" stroke-width="1" fill="none" marker-end="url(#arrow)"/><g transform="translate(93.763671875, 1342.5)"><rect width="27.4453125" height="21" stroke="none" fill="white" stroke-width="1" transform="translate(0, 0)" rx="5"/><text fill="black" font-size="14" font-weight="normal" transform="translate(1, 10.5)" alignment-baseline="middle">true</text></g><path transform="rotate(0,undefined, undefined)" d="M271.451171875,1296.6259288981623L289.005859375,1304.2716074151351C306.560546875,1311.9172859321081,341.669921875,1327.2086429660542,359.224609375,1340.7709881496937C376.779296875,1354.3333333333333,376.779296875,1366.1666666666667,376.779296875,1372.0833333333333L376.779296875,1378" stroke="black" stroke-dasharray="none" stroke-width="1" fill="none" marker-end="url(#arrow)"/><g transform="translate(358.845703125, 1342.5)"><rect width="33.5087890625" height="21" stroke="none" fill="white" stroke-width="1" transform="translate(0, 0)" rx="5"/><text fill="black" font-size="14" font-weight="normal" transform="translate(1, 10.5)" alignment-baseline="middle">false</text></g><path transform="rotate(0,undefined, undefined)" d="M299.23421838148585,1484L300.98473276582155,1478.0833333333333C302.73524715015725,1472.1666666666667,306.2362759188286,1460.3333333333333,307.9867903031643,1445.5833333333333C309.7373046875,1430.8333333333333,309.7373046875,1413.1666666666667,309.7373046875,1395.5C309.7373046875,1377.8333333333333,309.7373046875,1360.1666666666667,309.7373046875,1342.5C309.7373046875,1324.8333333333333,309.7373046875,1307.1666666666667,309.7373046875,1289.5C309.7373046875,1271.8333333333333,309.7373046875,1254.1666666666667,291.764892578125,1237.6636872116048C273.79248046875,1221.1607077565432,237.84765625,1205.821415513086,219.875244140625,1198.1517693913577L201.90283203125,1190.4821232696293" stroke="black" stroke-dasharray="none" stroke-width="1" fill="none" marker-end="url(#arrow)"/><path transform="rotate(0,undefined, undefined)" d="M190.955078125,1413L190.955078125,1418.9166666666667C190.955078125,1424.8333333333333,190.955078125,1436.6666666666667,205.41178385416666,1450.014892904953C219.86848958333334,1463.3631191432396,248.78190104166666,1478.2262382864792,263.2386067708333,1485.657797858099L277.6953125,1493.0893574297188" stroke="black" stroke-dasharray="none" stroke-width="1" fill="none" marker-end="url(#arrow)"/><path transform="rotate(0,undefined, undefined)" d="M161.74175449587264,1307L166.61064176739387,1312.9166666666667C171.4795290389151,1318.8333333333333,181.21730358195757,1330.6666666666667,186.08619085347877,1342.5C190.955078125,1354.3333333333333,190.955078125,1366.1666666666667,190.955078125,1372.0833333333333L190.955078125,1378" stroke="black" stroke-dasharray="none" stroke-width="1" fill="none" marker-end="url(#arrow)"/><g transform="translate(176.486328125, 1342.5)"><rect width="27.4453125" height="21" stroke="none" fill="white" stroke-width="1" transform="translate(0, 0)" rx="5"/><text fill="black" font-size="14" font-weight="normal" transform="translate(1, 10.5)" alignment-baseline="middle">true</text></g><path transform="rotate(0,undefined, undefined)" d="M155.9921506485849,1272L158.91712423840409,1266.0833333333333C161.84209782822327,1260.1666666666667,167.69204500786165,1248.3333333333333,171.95658672980542,1236.5C176.22112845174922,1224.6666666666667,178.90026471599845,1212.8333333333333,180.23983284812303,1206.9166666666667L181.57940098024764,1201" stroke="black" stroke-dasharray="none" stroke-width="1" fill="none" marker-end="url(#arrow)"/><g transform="translate(155.6083984375, 1236.5)"><rect width="33.5087890625" height="21" stroke="none" fill="white" stroke-width="1" transform="translate(0, 0)" rx="5"/><text fill="black" font-size="14" font-weight="normal" transform="translate(1, 10.5)" alignment-baseline="middle">false</text></g><path transform="rotate(0,undefined, undefined)" d="M373.4774100825472,1519L372.3610578812893,1524.9166666666667C371.2447056800315,1530.8333333333333,369.0120012775157,1542.6666666666667,367.8956490762578,1554.5C366.779296875,1566.3333333333333,366.779296875,1578.1666666666667,366.779296875,1584.0833333333333L366.779296875,1590" stroke="black" stroke-dasharray="none" stroke-width="1" fill="none" marker-end="url(#arrow)"/><path transform="rotate(0,undefined, undefined)" d="M376.779296875,1413L376.779296875,1418.9166666666667C376.779296875,1424.8333333333333,376.779296875,1436.6666666666667,376.779296875,1448.5C376.779296875,1460.3333333333333,376.779296875,1472.1666666666667,376.779296875,1478.0833333333333L376.779296875,1484" stroke="black" stroke-dasharray="none" stroke-width="1" fill="none" marker-end="url(#arrow)"/><path transform="rotate(0,undefined, undefined)" d="M186.74267578125,1816.00002857644L225.30900065104166,1807.7500238137C263.8753255208333,1799.50001905096,341.0079752604167,1783.00000952548,379.5743001302083,1765.9166714294067C418.140625,1748.8333333333333,418.140625,1731.1666666666667,418.140625,1713.5C418.140625,1695.8333333333333,418.140625,1678.1666666666667,418.140625,1660.5C418.140625,1642.8333333333333,418.140625,1625.1666666666667,418.140625,1607.5C418.140625,1589.8333333333333,418.140625,1572.1666666666667,369.2161458333333,1554.9663479819083C320.2916666666667,1537.7660292971498,222.44270833333334,1521.0320585942998,173.51822916666666,1512.665073242875L124.59375,1504.2980878914498" stroke="black" stroke-dasharray="none" stroke-width="1" fill="none" marker-end="url(#arrow)"/></svg>